<svg xmlns="http://www.w3.org/2000/svg" viewBox="0 0 391.9 173.4"><defs><style>.cls-1{fill:#f2f2f2;}</style></defs><title>Asset 7</title><g id="Layer_2" data-name="Layer 2"><g id="Layer_1-2" data-name="Layer 1"><path class="cls-1" d="M53.4,114.91h-28L20.9,128H0l28.7-75.4H50.1L78.8,128H57.9ZM48.2,100l-8.8-25.1L30.6,100Z"/><path class="cls-1" d="M138.9,77.81q-6.81-8.3-16.8-8.3a20.64,20.64,0,0,0-8.15,1.6A19.52,19.52,0,0,0,103.25,82a21.41,21.41,0,0,0-1.55,8.2,21.63,21.63,0,0,0,1.55,8.3A20,20,0,0,0,122,111.11q9.39,0,16.9-8v23.2l-2,.7a57.45,57.45,0,0,1-8.4,2.35,40.73,40.73,0,0,1-7.7.75,39.36,39.36,0,0,1-27.55-11.25,41.1,41.1,0,0,1-8.75-12.7,40.72,40.72,0,0,1,0-32A39.82,39.82,0,0,1,120.9,50.51a41.57,41.57,0,0,1,8.85,1,54.59,54.59,0,0,1,9.15,2.95Z"/><path class="cls-1" d="M205.6,77.81q-6.81-8.3-16.8-8.3a20.64,20.64,0,0,0-8.15,1.6A19.52,19.52,0,0,0,170,82a21.41,21.41,0,0,0-1.55,8.2,21.63,21.63,0,0,0,1.55,8.3,20,20,0,0,0,18.75,12.6q9.39,0,16.9-8v23.2l-2,.7a57.45,57.45,0,0,1-8.4,2.35,40.73,40.73,0,0,1-7.7.75A39.36,39.36,0,0,1,160,118.86a41.1,41.1,0,0,1-8.75-12.7,40.72,40.72,0,0,1,0-32A39.82,39.82,0,0,1,187.6,50.51a41.57,41.57,0,0,1,8.85,1,54.59,54.59,0,0,1,9.15,2.95Z"/><path class="cls-1" d="M260.9,69.21H237.6v12.6h22v16.6h-22v13h23.3V128H218V52.61h42.9Z"/><path class="cls-1" d="M316.4,71.91a24.64,24.64,0,0,0-6.4-3.85,17.09,17.09,0,0,0-6.2-1.25,10,10,0,0,0-6.2,1.8,5.61,5.61,0,0,0-2.4,4.7,4.65,4.65,0,0,0,1.2,3.3,10.34,10.34,0,0,0,3.15,2.25,25.58,25.58,0,0,0,4.4,1.65q2.44.7,4.85,1.5,9.6,3.21,14.05,8.55t4.45,14a27.13,27.13,0,0,1-1.95,10.5,21.83,21.83,0,0,1-5.7,8,26.18,26.18,0,0,1-9.2,5.2,38.16,38.16,0,0,1-12.35,1.85,45.37,45.37,0,0,1-26.5-8.5l8.4-15.8a33.79,33.79,0,0,0,8.7,5.8,20.83,20.83,0,0,0,8.5,1.9q4.8,0,7.15-2.2a6.7,6.7,0,0,0,2.35-5,6.78,6.78,0,0,0-.6-3,6.45,6.45,0,0,0-2-2.3,16.17,16.17,0,0,0-3.65-2c-1.5-.6-3.32-1.26-5.45-2q-3.81-1.2-7.45-2.65a23.19,23.19,0,0,1-6.5-3.85,17.74,17.74,0,0,1-4.6-6,21.32,21.32,0,0,1-1.75-9.25,26.63,26.63,0,0,1,1.85-10.15,22.48,22.48,0,0,1,5.2-7.8,23.18,23.18,0,0,1,8.2-5,31,31,0,0,1,10.85-1.8,47.69,47.69,0,0,1,11.7,1.55,52.16,52.16,0,0,1,11.7,4.55Z"/><path class="cls-1" d="M381,71.91a24.64,24.64,0,0,0-6.4-3.85,17.09,17.09,0,0,0-6.2-1.25,10,10,0,0,0-6.2,1.8,5.61,5.61,0,0,0-2.4,4.7,4.65,4.65,0,0,0,1.2,3.3,10.34,10.34,0,0,0,3.15,2.25,25.58,25.58,0,0,0,4.4,1.65q2.44.7,4.85,1.5,9.6,3.21,14.05,8.55t4.45,14A27.13,27.13,0,0,1,390,115a21.83,21.83,0,0,1-5.7,8,26.18,26.18,0,0,1-9.2,5.2,38.16,38.16,0,0,1-12.35,1.85,45.37,45.37,0,0,1-26.5-8.5l8.4-15.8a33.79,33.79,0,0,0,8.7,5.8,20.83,20.83,0,0,0,8.5,1.9q4.8,0,7.15-2.2a6.7,6.7,0,0,0,2.35-5,6.78,6.78,0,0,0-.6-3,6.45,6.45,0,0,0-2-2.3,16.17,16.17,0,0,0-3.65-2c-1.5-.6-3.32-1.26-5.45-2q-3.81-1.2-7.45-2.65a23.19,23.19,0,0,1-6.5-3.85,17.74,17.74,0,0,1-4.6-6,21.32,21.32,0,0,1-1.75-9.25,26.63,26.63,0,0,1,1.85-10.15,22.48,22.48,0,0,1,5.2-7.8,23.18,23.18,0,0,1,8.2-5,31,31,0,0,1,10.85-1.8,47.69,47.69,0,0,1,11.7,1.55,52.16,52.16,0,0,1,11.7,4.55Z"/><path class="cls-1" d="M12.18,152a5.21,5.21,0,0,0-3.16-.9,7.1,7.1,0,0,0-1.53.16,4.06,4.06,0,0,0-1.34.51,2.85,2.85,0,0,0-.94,1,3.05,3.05,0,0,0-.35,1.52,1.92,1.92,0,0,0,.51,1.39,3.67,3.67,0,0,0,1.35.87,11.37,11.37,0,0,0,1.91.56l2.17.48c.74.18,1.47.38,2.18.61a7.41,7.41,0,0,1,1.91,1,4.56,4.56,0,0,1,1.35,1.51,5.24,5.24,0,0,1-.16,4.82,5.37,5.37,0,0,1-1.7,1.72,7.44,7.44,0,0,1-2.33,1,11.25,11.25,0,0,1-2.56.3A10.89,10.89,0,0,1,6.54,168a7.19,7.19,0,0,1-2.44-1.18,5.72,5.72,0,0,1-1.67-2,6.63,6.63,0,0,1-.61-2.93H4.16a4.07,4.07,0,0,0,1.65,3.41,5.31,5.31,0,0,0,1.73.81,8.13,8.13,0,0,0,2,.26,9.74,9.74,0,0,0,1.68-.16,4.89,4.89,0,0,0,1.52-.53,3.07,3.07,0,0,0,1.09-1,3,3,0,0,0,.42-1.66,2.33,2.33,0,0,0-.51-1.56,3.74,3.74,0,0,0-1.35-1,10.45,10.45,0,0,0-1.91-.61l-2.18-.48c-.73-.17-1.46-.36-2.17-.57a8.34,8.34,0,0,1-1.91-.86,4.24,4.24,0,0,1-1.35-1.38,4,4,0,0,1-.51-2.12A4.85,4.85,0,0,1,3,152a4.93,4.93,0,0,1,1.52-1.69,6.89,6.89,0,0,1,2.16-1A9.75,9.75,0,0,1,9.13,149a9.76,9.76,0,0,1,2.65.34,6,6,0,0,1,2.14,1.06,5.08,5.08,0,0,1,1.46,1.84,6.49,6.49,0,0,1,.59,2.63H13.63A3.83,3.83,0,0,0,12.18,152Z"/><path class="cls-1" d="M19.65,152.15v-2.7h2.21v2.7Zm2.21,2.42V168H19.65V154.57Z"/><path class="cls-1" d="M27.41,154.57v2h.05a5.24,5.24,0,0,1,6.61-1.77,2.93,2.93,0,0,1,1.43,1.77,4.66,4.66,0,0,1,1.78-1.69,5,5,0,0,1,2.43-.6,6.85,6.85,0,0,1,1.83.22,3.87,3.87,0,0,1,1.41.69,3.18,3.18,0,0,1,.91,1.21,4.53,4.53,0,0,1,.32,1.78V168H42V159.2a6.15,6.15,0,0,0-.1-1.17,2.45,2.45,0,0,0-.39-.95,2,2,0,0,0-.79-.64,3.29,3.29,0,0,0-1.32-.23,3.44,3.44,0,0,0-2.57.94,3.33,3.33,0,0,0-.94,2.49V168H33.65V159.2a6.44,6.44,0,0,0-.11-1.2,2.51,2.51,0,0,0-.41-.94,1.88,1.88,0,0,0-.76-.63,3,3,0,0,0-1.24-.22,3.3,3.3,0,0,0-1.65.39,3.72,3.72,0,0,0-1.12.94,3.82,3.82,0,0,0-.62,1.13,3.21,3.21,0,0,0-.2,1V168H25.33V154.57Z"/><path class="cls-1" d="M49.85,154.57v1.82h0a3.36,3.36,0,0,1,1.72-1.62,6.37,6.37,0,0,1,2.57-.51,6.09,6.09,0,0,1,2.72.57,5.5,5.5,0,0,1,1.92,1.55A6.86,6.86,0,0,1,60,158.63a9.18,9.18,0,0,1,.39,2.7A9.54,9.54,0,0,1,60,164a6.32,6.32,0,0,1-1.14,2.22,5.35,5.35,0,0,1-1.92,1.49,6.2,6.2,0,0,1-2.7.55,6.45,6.45,0,0,1-2.31-.44,4.69,4.69,0,0,1-1.13-.64,3.61,3.61,0,0,1-.9-1h0v6.92H47.64V154.57Zm7.94,4.77a4.76,4.76,0,0,0-.75-1.59,3.61,3.61,0,0,0-1.3-1.12,3.93,3.93,0,0,0-1.86-.42,3.62,3.62,0,0,0-3.17,1.6,5,5,0,0,0-.72,1.62,8.28,8.28,0,0,0-.22,1.85,7.52,7.52,0,0,0,.24,1.91,4.59,4.59,0,0,0,.74,1.63A3.89,3.89,0,0,0,52.06,166a4.19,4.19,0,0,0,1.95.43,3.72,3.72,0,0,0,1.91-.45,3.56,3.56,0,0,0,1.24-1.17,5.12,5.12,0,0,0,.67-1.66,8.69,8.69,0,0,0,.21-1.92A6.7,6.7,0,0,0,57.79,159.34Z"/><path class="cls-1" d="M65.42,149.45V168H63.21V149.45Z"/><path class="cls-1" d="M69,152.15v-2.7h2.21v2.7Zm2.21,2.42V168H69V154.57Z"/><path class="cls-1" d="M73.29,156.52v-2h2.26v-2a3.15,3.15,0,0,1,1-2.48,4,4,0,0,1,2.77-.85,6.71,6.71,0,0,1,.72,0,4.39,4.39,0,0,1,.71.16v1.92a3.76,3.76,0,0,0-.62-.14c-.23,0-.44,0-.63,0a2.24,2.24,0,0,0-1.25.31,1.4,1.4,0,0,0-.44,1.2v1.87h2.6v2h-2.6V168H75.55V156.52Z"/><path class="cls-1" d="M88.44,169.81a14,14,0,0,1-.77,1.66,4.73,4.73,0,0,1-.83,1.11,2.88,2.88,0,0,1-1,.62,3.93,3.93,0,0,1-1.29.2,5.12,5.12,0,0,1-.78-.06,3.16,3.16,0,0,1-.75-.18v-2a4.21,4.21,0,0,0,.66.23,2.79,2.79,0,0,0,.64.09,1.89,1.89,0,0,0,1.13-.33,2,2,0,0,0,.69-.92l.91-2.26-5.33-13.37H84.2l3.93,11h.05l3.77-11h2.34Z"/><path class="cls-1" d="M115.45,167.79a9,9,0,0,1-7-.13,8.48,8.48,0,0,1-2.79-2.06,9.21,9.21,0,0,1-1.74-3,10.44,10.44,0,0,1-.6-3.51,13.25,13.25,0,0,1,.56-3.86,9.57,9.57,0,0,1,1.67-3.22,8,8,0,0,1,2.75-2.19,8.54,8.54,0,0,1,3.86-.82,11.35,11.35,0,0,1,2.85.35,7.16,7.16,0,0,1,2.39,1.1,6.52,6.52,0,0,1,1.77,1.92,7.54,7.54,0,0,1,1,2.79h-2.47a4.81,4.81,0,0,0-.68-1.83,4.44,4.44,0,0,0-1.22-1.26,5.37,5.37,0,0,0-1.65-.74,7.38,7.38,0,0,0-2-.25,5.83,5.83,0,0,0-2.89.67,5.88,5.88,0,0,0-2,1.79,7.62,7.62,0,0,0-1.13,2.52,11.7,11.7,0,0,0-.37,2.9,9.24,9.24,0,0,0,.42,2.79,7.6,7.6,0,0,0,1.22,2.37,6.1,6.1,0,0,0,2,1.64,6,6,0,0,0,2.74.61,6.67,6.67,0,0,0,2.58-.47,5.34,5.34,0,0,0,1.88-1.29,5.43,5.43,0,0,0,1.16-1.92,6.42,6.42,0,0,0,.34-2.38h-5.93v-2.08h8.14V168h-1.56l-.65-2.31A6.13,6.13,0,0,1,115.45,167.79Z"/><path class="cls-1" d="M130.52,149.45a9.31,9.31,0,0,1,6.61,2.18q2.31,2.19,2.31,6.66a15,15,0,0,1-.52,4.15,7.77,7.77,0,0,1-1.61,3,7,7,0,0,1-2.78,1.88,11.06,11.06,0,0,1-4,.65h-6.37V149.45Zm.21,16.48c.28,0,.62,0,1-.06a5.9,5.9,0,0,0,1.33-.31,6.59,6.59,0,0,0,1.39-.72,4.53,4.53,0,0,0,1.23-1.27,7.14,7.14,0,0,0,.9-2,10.71,10.71,0,0,0,.35-2.92,12.3,12.3,0,0,0-.33-3,5.64,5.64,0,0,0-1.06-2.23,4.68,4.68,0,0,0-1.91-1.41,7.63,7.63,0,0,0-2.89-.48h-4.16v14.4Z"/><path class="cls-1" d="M150.78,149.45a5.77,5.77,0,0,1,4.25,1.44,6.42,6.42,0,0,1,0,8.1,5.64,5.64,0,0,1-4.25,1.43h-5.67V168h-2.47V149.45Zm-.83,8.89a4.4,4.4,0,0,0,3.08-.86,3.81,3.81,0,0,0,0-5.08,4.55,4.55,0,0,0-3.08-.87h-4.84v6.81Z"/><path class="cls-1" d="M167.82,149.45a6.11,6.11,0,0,1,4.15,1.3,4.46,4.46,0,0,1,1.49,3.56,5.66,5.66,0,0,1-.76,3,3.93,3.93,0,0,1-2.46,1.74v0a3.21,3.21,0,0,1,1.31.52,2.79,2.79,0,0,1,.81.87,3.86,3.86,0,0,1,.44,1.13,10.68,10.68,0,0,1,.22,1.3c0,.45.06.91.08,1.38a12.41,12.41,0,0,0,.13,1.38,8.67,8.67,0,0,0,.3,1.29,3,3,0,0,0,.59,1.07h-2.76a1.57,1.57,0,0,1-.35-.78,8.22,8.22,0,0,1-.12-1.1c0-.41,0-.85,0-1.31a9,9,0,0,0-.16-1.38,12.26,12.26,0,0,0-.26-1.29,3,3,0,0,0-.49-1.06,2.37,2.37,0,0,0-.89-.73,3.25,3.25,0,0,0-1.45-.28h-6V168h-2.47V149.45Zm.52,8.42a3.51,3.51,0,0,0,1.37-.5,2.7,2.7,0,0,0,.93-1,3.31,3.31,0,0,0,.36-1.65,3.35,3.35,0,0,0-.79-2.29,3.22,3.22,0,0,0-2.52-.88h-6.13V158h5.15A9.53,9.53,0,0,0,168.34,157.87Z"/><path class="cls-1" d="M6.3,0V12.3s2.22.62,2.77,6.34v.16a1.85,1.85,0,0,1,0,.23.49.49,0,0,1,0,.12v0c2,13.44,15.61,12.73,15.61,12.73H50.42V0ZM33.74,29.51H23.93a12.16,12.16,0,1,1,0-24.31h1.34a11.29,11.29,0,0,1,6.24,10.11,10,10,0,0,1-5.51,9,2.14,2.14,0,0,0-1.26,2.25s10-.47,10.83-13.12c0,0,.14-3,2.08-4.3l2.83-1.88a12.14,12.14,0,0,1-6.74,22.29Z"/><path class="cls-1" d="M113.49,22.83h-.09L107.73,0h-6.81L95.16,22.55h-.09L89.83,0H76.43V20.6c0,4.91-1.68,7.19-6.87,7.19-5.89,0-6.82-3.57-6.82-7.19V0H55.45V20.6c0,9,5.2,13.31,14.11,13.31S83.71,29.55,83.71,20.6V4.38l7.61,28.74h7.37l5.52-22.54h.09l5.62,22.54h7.23L126.06,0h-7.14Z"/><path class="cls-1" d="M141,0H126.09V33.12h7.28V21.24H141c8.25,0,11.45-5.24,11.45-10.61S149.28,0,141,0Zm-2,15.59h-5.66V5.66H139c3.39,0,6.4.74,6.4,5S142.42,15.59,139,15.59Z"/></g></g></svg>