
<svg width="12px" height="12px" viewBox="0 0 12 12" version="1.1" xmlns="http://www.w3.org/2000/svg" xmlns:xlink="http://www.w3.org/1999/xlink">
    <g stroke="none" stroke-width="1" fill="none" fill-rule="evenodd">
        <g transform="translate(-124.000000, -148.000000)" fill="#032540" fill-rule="nonzero" stroke="#032540" stroke-width="0.5">
            <g  transform="translate(0.000000, 128.000000)">
                <path d="M129.521778,26.0015341 L125.095355,30.4588811 C124.972382,30.5827138 124.972382,30.7833322 125.095355,30.9071648 C125.156764,30.9691598 125.237392,31 125.317864,31 C125.398492,31 125.478964,30.9691598 125.540373,30.9071648 L130.000078,26.4163028 L134.459784,30.9071648 C134.521348,30.9691598 134.60182,31 134.682292,31 C134.762764,31 134.843392,30.9691598 134.904801,30.9071648 C135.027775,30.7833322 135.027775,30.5827138 134.904801,30.4588811 L130.478534,26.0015341 L134.90777,21.5410402 C135.030743,21.4172075 135.030743,21.2165892 134.90777,21.0927565 C134.784796,20.9690812 134.58557,20.9690812 134.462752,21.0927565 L130.000234,25.5867655 L125.537248,21.0929138 C125.414274,20.9692385 125.215204,20.9692385 125.09223,21.0929138 C124.969257,21.2167465 124.969257,21.4173649 125.09223,21.5411976 L129.521778,26.0015341 Z"  transform="translate(130.000000, 26.000000) scale(-1, 1) translate(-130.000000, -26.000000) "></path>
            </g>
        </g>
    </g>
</svg>