<svg xmlns="http://www.w3.org/2000/svg" xmlns:xlink="http://www.w3.org/1999/xlink" viewBox="0 0 300 300"><defs><style>.cls-access-1{fill:url(#linear-gradient) !important;}.cls-access-2{fill:#fff !important;}</style><linearGradient id="linear-gradient" x1="45.55" y1="210.31" x2="259.23" y2="86.94" gradientUnits="userSpaceOnUse"><stop offset="0" stop-color="#662d91"/><stop offset="1" stop-color="#d4145a"/></linearGradient></defs><title>Asset 9</title><g id="Layer_2" data-name="Layer 2"><g id="Layer_1-2" data-name="Layer 1"><circle class="cls-access-1" cx="150" cy="150" r="150"/><path class="cls-access-2" d="M215.41,248.49c12.35-1.24,34-5.78,35.8-11.11.22-.68-.1,2.31.22,2.14,1.89-.94,2.83-3.76,2.83-4.71a12.28,12.28,0,0,1,.94,1.89c.94-.94,1.88-4.71,1.88-4.71l.94,1.88c1-.94,1-3.76,1-4.71l1.88,1.89c.26-.6,0-2.83-.94-4.71l1.88.94a19.25,19.25,0,0,0-.94-4.71l1.88.94c0-1.88-1.88-5.65-1.88-5.65l1.88.94c0-1.23-2.82-6.59-2.82-6.59l1.88.94a29.15,29.15,0,0,0-1.88-6.59C256.2,197.08,245,186.78,245,186.78c6.17-25.92-8-62.54-32.93-79.51-10.79-7.35-24.58-10-37.43-8.12-17.27,2.47-40.11,22.83-55.54,21-6.12-.74-8.64-12.34-8.64-29.62s-11.72-21.6-11.72-21.6c0-7.51-8-5.55-8-5.55a65.64,65.64,0,0,0-16.66-8,46.35,46.35,0,0,0-21-1.23s-3.7-.62-4.93,1.85a5.94,5.94,0,0,0,0,4.94,45.16,45.16,0,0,0,1.07,5.24,7.84,7.84,0,0,0,.64,2.26,38.18,38.18,0,0,0,4.46,9.78C58.94,85.05,69.78,93,69.78,93s1.23,7.4,2.46,30.85,14.81,38.26,18.52,44.43,0,42,0,42-1.24,2.47-6.17,4.93-2.47,7.41-2.47,7.41H94.46c2.47,0,7.41-6.17,12.34-13.58s7.41-21,7.41-21l4.93-2.47,1.24,4.94a28.28,28.28,0,0,0,1.85-6.79l1.23,7.41a17.69,17.69,0,0,0,2.47-8.64l2.47,7.4c1.24-3.7,1.24-9.87,1.24-9.87l6.78,1.85-1.23-2.47,8.64,2.47-1.24-2.47,8,1.85-1.85-3.08,8,3.08-1.24-3.7,4.32,1.85,1.24-2.47,11.72,10.49c-2.47,16.05,13,26.54,13,26.54s-1.23,1.23-7.4,2.47-10.49.62-14.2.62-4.32,4.32-4.32,4.32,40.73,1.23,53.08,0c2.81-.29,7.06-1.23,9.28-2.54a36.31,36.31,0,0,0,4.71-3.77L226,218.8c1.88-1.88,4.71-4.12,4.71-6.59l.75,2.95c1.59-2.22,3-5.79,2.47-8.63,0-.16,1.23,0,2.47,1.23a7.78,7.78,0,0,1,2.4,5c1,5-3.64,13.49-13.51,18.43-5.79,2.89-14.72,3.88-24.75,4.32-1.53.07-3.09.13-4.67.17l-2.51.07-3.47.08-3.81.09-2.57.06c-1.71,0-3.42.09-5.12.15-3.9.13-9.88-1.51-9.88,3.7,0,6.17,10.38,6.46,16.05,7.4A118,118,0,0,0,215.41,248.49ZM71.63,60.27a3.09,3.09,0,1,1-3.09,3.09A3.08,3.08,0,0,1,71.63,60.27ZM69.78,86.19c-6.35,0-13.36-4.69-17.12-14a27.8,27.8,0,0,0,7,4.7l.55-1.11c-5.06-2.53-7.53-5-8.71-7.07a39.68,39.68,0,0,1-.93-4.25,2.2,2.2,0,0,1,.06-.24l-.11,0c-.2-1.25-.37-2.53-.46-3.88,0,0,3.7-1.23,2.47-4.94,0,0,3.7-1.23,6.17,0a20.94,20.94,0,0,0,.16,10.49c.56,2.07,1.58,4.37,3.47,5.57A10.3,10.3,0,0,0,68,73.07a8.92,8.92,0,0,0,6.38-1.95c1.8-1.66,2.37-4.17,2.67-6.5.07-.51.49-5.58.15-5.58,0,0,11.11,0,7.41,12.34S78.42,86.19,69.78,86.19Zm23.45-9.88a9.33,9.33,0,0,1-8.64,1.24l6.17-8.64s2.47-3.7,4.93-1.24C96.93,68.91,96.93,73.85,93.23,76.31Z"/><path class="cls-access-2" d="M84.19,163.23s-1.2,43.29-6,46.89-9.62,3.61-9.62,6,1.2,3.6,4.81,3.6h6s-.43-4.12,2.4-6a43.16,43.16,0,0,0,6-4.81s3.6-34.87,1.2-38.48Z"/></g></g></svg>