<svg width="20px" height="21px" viewBox="0 0 20 21" version="1.1" xmlns="http://www.w3.org/2000/svg" xmlns:xlink="http://www.w3.org/1999/xlink">
    <g stroke="none" stroke-width="1" fill="none" fill-rule="evenodd">
        <g transform="translate(-274.000000, -651.000000)">
            <g transform="translate(0.000000, 83.000000)">
                <g transform="translate(0.000000, 380.000000)">
                    <g transform="translate(274.500000, 189.000000)">
                        <path d="M9.42475585,11.3461914 L10.3915527,11.0239258 C10.2304199,10.8878581 10.1498535,10.7231445 10.1498535,10.5297852 C10.1498535,10.3758138 10.1981934,10.2307943 10.294873,10.0947266 C10.3915527,9.95865885 10.5132975,9.84049479 10.6601074,9.74023438 C10.8069173,9.63997396 10.9653646,9.52449544 11.1354492,9.39379883 C11.3055338,9.26310221 11.4639811,9.13061523 11.610791,8.99633789 C11.7576009,8.86206055 11.8793457,8.68929036 11.9760254,8.47802734 C12.0727051,8.26676432 12.1210449,8.03401693 12.1210449,7.77978516 C12.1210449,7.27490234 11.9187337,6.86132812 11.5141113,6.5390625 C11.1094889,6.21679688 10.5670085,6.05566406 9.88666992,6.05566406 C9.39611002,6.05566406 8.94493815,6.15055339 8.53315429,6.34033203 C8.12137044,6.53011068 7.77403971,6.796875 7.4911621,7.140625 L7.4911621,7.140625 L8.22700195,7.96777344 C8.64594726,7.45214844 9.15620117,7.19433594 9.75776367,7.19433594 C10.0979329,7.19433594 10.3566406,7.26953125 10.5338867,7.41992188 C10.7111328,7.5703125 10.7997559,7.76009115 10.7997559,7.98925781 C10.7997559,8.11458333 10.7675293,8.2327474 10.7030762,8.34375 C10.638623,8.4547526 10.5535807,8.55501302 10.4479492,8.64453125 C10.3423177,8.73404948 10.2268392,8.82267253 10.1015137,8.91040039 C9.97618815,8.99812826 9.85086262,9.09122721 9.7255371,9.18969727 C9.60021158,9.28816732 9.48473307,9.39290365 9.37910156,9.50390625 C9.27347005,9.61490885 9.18842773,9.74829102 9.1239746,9.90405273 C9.05952148,10.0598145 9.02729492,10.2290039 9.02729492,10.4116211 C9.02729492,10.7804362 9.1597819,11.0919596 9.42475585,11.3461914 L9.42475585,11.3461914 Z M9.82221679,13.6235352 C10.0298991,13.6235352 10.2098307,13.5474447 10.3620117,13.3952637 C10.5141927,13.2430827 10.5902832,13.0613607 10.5902832,12.8500977 C10.5902832,12.6388346 10.5150879,12.4580078 10.3646973,12.3076172 C10.2143066,12.1572266 10.0334798,12.0820312 9.82221679,12.0820312 C9.61095377,12.0820312 9.42923177,12.1581217 9.27705078,12.3103027 C9.12486979,12.4624837 9.04877929,12.6424154 9.04877929,12.8500977 C9.04877929,13.0613607 9.12486979,13.2430827 9.27705078,13.3952637 C9.42923177,13.5474447 9.61095377,13.6235352 9.82221679,13.6235352 Z" fill="#032540" fill-rule="nonzero"></path>
                        <circle stroke="#032540" cx="9.5" cy="9.5" r="9.5"></circle>
                    </g>
                </g>
            </g>
        </g>
    </g>
</svg>