<svg width="20px" height="21px" viewBox="0 0 20 21" version="1.1" xmlns="http://www.w3.org/2000/svg" xmlns:xlink="http://www.w3.org/1999/xlink">
    <g  stroke="none" stroke-width="1" fill="none" fill-rule="evenodd">
        <g  transform="translate(-85.000000, -647.000000)" fill="#032540" fill-rule="nonzero">
            <g transform="translate(0.000000, 83.000000)">
                <g transform="translate(0.000000, 380.000000)">
                        <g  transform="translate(85.000000, 184.000000)">
                            <path d="M19.02916,4.51884 L9.73044,0.0298 C9.648,-0.00996 9.552,-0.00996 9.4696,0.0298 L0.17084,4.51884 C0.06716,4.56888 0.00128,4.67388 0.00128,4.789 L0.00128,15.69096 C0.00128,15.80608 0.06716,15.91108 0.17084,15.96112 L9.46956,20.45016 C9.51076,20.47004 9.5554,20.48 9.6,20.48 C9.6446,20.48 9.6892,20.47004 9.73044,20.45016 L19.02916,15.96112 C19.13284,15.91108 19.19872,15.80608 19.19872,15.69096 L19.19872,4.78904 C19.19872,4.67384 19.1328,4.56892 19.02916,4.51884 Z M9.6,0.63312 L18.20868,4.789 L15.7132,5.99372 C15.6974,5.98168 15.68072,5.97056 15.6624,5.96172 L7.1122,1.83412 L9.6,0.63312 Z M6.43468,2.17332 L15.03084,6.32316 L13.27024,7.17312 L4.67764,3.02496 L6.43468,2.17332 Z M15.23196,6.89228 L15.23196,10.03412 L13.58744,10.82804 L13.58744,7.6862 L15.23196,6.89228 Z M18.59872,15.50272 L9.9,19.702 L9.9,9.46632 L11.97492,8.46464 C12.12412,8.3926 12.18668,8.21328 12.11464,8.06404 C12.0426,7.91488 11.86328,7.85224 11.71404,7.92432 L9.6,8.94492 L8.76816,8.54332 C8.61892,8.4712 8.4396,8.53384 8.36756,8.68304 C8.29552,8.83224 8.35808,9.0116 8.50728,9.08364 L9.3,9.46632 L9.3,19.702 L0.60128,15.50264 L0.60128,5.26696 L7.22528,8.46476 C7.26732,8.48508 7.31176,8.49468 7.35548,8.49468 C7.467,8.49468 7.57412,8.4322 7.62584,8.32504 C7.69788,8.17584 7.63532,7.99648 7.48612,7.92444 L0.99132,4.789 L3.97152,3.35028 L12.98328,7.7008 C12.9846,7.70264 12.98608,7.70428 12.98744,7.70608 L12.98744,11.30604 C12.98744,11.40928 13.04052,11.50524 13.12796,11.56016 C13.17652,11.59064 13.23192,11.60604 13.28748,11.60604 C13.33196,11.60604 13.37656,11.59616 13.41788,11.5762 L15.6624,10.49264 C15.76608,10.4426 15.83196,10.33764 15.83196,10.22248 L15.83196,6.60268 L18.59872,5.267 L18.59872,15.50272 L18.59872,15.50272 Z" ></path>
                        </g>
                </g>
            </g>
        </g>
    </g>
</svg>